<svg viewBox="0 0 161.993 64"><defs><clipPath id="logo-footer"><path fill="none" d="M0 0h161.993v64H0z" data-name="Rectangle 181"></path></clipPath></defs><g clip-path="url(#logo-footer)" data-name="Group 3443"><path fill="#08A17F" d="M54.172 18.566a1.7 1.7 0 0 1-.854-.23L27.943 3.686 2.567 18.337a1.711 1.711 0 1 1-1.711-2.963L27.087.229a1.709 1.709 0 0 1 1.711 0l26.231 15.145a1.711 1.711 0 0 1-.857 3.193" data-name="Path 317"></path><path fill="#fff" d="M27.943 64a1.706 1.706 0 0 1-.855-.229L.856 48.626a1.711 1.711 0 1 1 1.711-2.963l25.376 14.651 25.376-14.651a1.711 1.711 0 1 1 1.711 2.963L28.8 63.771a1.706 1.706 0 0 1-.855.229" data-name="Path 318"></path><path fill="#08A17F" d="M54.172 26.468a1.7 1.7 0 0 1-.854-.23l-25.376-14.65-18.533 10.7a1.711 1.711 0 1 1-1.711-2.963L27.087 8.131a1.709 1.709 0 0 1 1.711 0l26.231 15.148a1.711 1.711 0 0 1-.857 3.193" data-name="Path 319"></path><path fill="#fff" d="M27.943 56.098a1.706 1.706 0 0 1-.855-.229L.856 40.726a1.711 1.711 0 1 1 1.711-2.963l25.376 14.651 18.533-10.7a1.711 1.711 0 1 1 1.711 2.963L28.8 55.869a1.706 1.706 0 0 1-.855.229" data-name="Path 320"></path><path fill="#08A17F" d="M54.171 34.37a1.7 1.7 0 0 1-.854-.23L27.943 19.49l-11.69 6.749a1.711 1.711 0 1 1-1.711-2.963l12.545-7.243a1.709 1.709 0 0 1 1.711 0l26.231 15.145a1.711 1.711 0 0 1-.857 3.193" data-name="Path 321"></path><path fill="#fff" d="M27.943 48.197a1.706 1.706 0 0 1-.855-.229L.856 32.823a1.711 1.711 0 1 1 1.711-2.963l25.376 14.651 11.69-6.749a1.711 1.711 0 1 1 1.711 2.963L28.8 47.968a1.706 1.706 0 0 1-.855.229" data-name="Path 322"></path><path fill="#08A17F" d="M54.172 42.271a1.7 1.7 0 0 1-.854-.23l-25.375-14.65-4.847 2.8a1.711 1.711 0 0 1-1.711-2.963l5.7-3.292a1.709 1.709 0 0 1 1.71 0l26.231 15.145a1.711 1.711 0 0 1-.857 3.193" data-name="Path 323"></path><path fill="#fff" d="M27.943 40.295a1.706 1.706 0 0 1-.855-.229L.856 24.922a1.711 1.711 0 1 1 1.711-2.963l25.376 14.65 4.847-2.8a1.71138285 1.71138285 0 0 1 1.71 2.965l-5.7 3.294a1.709 1.709 0 0 1-.855.229" data-name="Path 324"></path><path fill="#fff" d="M70.057 7.796h9.89q4.718 0 7.024 2.516a8.71 8.71 0 0 1 2.342 6.221 8.287 8.287 0 0 1-2.411 6.116q-2.411 2.411-7.374 2.411h-3.7v8.562h-5.771Zm5.766 12.057h3.914a3.675 3.675 0 0 0 2.691-.961 3.506 3.506 0 0 0 .035-4.823 3.322 3.322 0 0 0-2.481-.961h-4.159Z" data-name="Path 325"></path><path fill="#fff" d="M113.185 33.623h-6.011l-1.713-5.207h-8.667l-1.782 5.207h-6.011l9.68-25.827h5.033Zm-9.261-10.275-2.761-8.178-2.8 8.178Z" data-name="Path 326"></path><path fill="#fff" d="M127.65 34.008a13.116 13.116 0 0 1-9.471-3.669 12.724 12.724 0 0 1-3.809-9.541 12.876 12.876 0 0 1 3.879-9.645 13.084 13.084 0 0 1 9.471-3.81 14.453 14.453 0 0 1 6.361 1.416 12.483 12.483 0 0 1 4.718 3.827l-3.774 3.844a8.835 8.835 0 0 0-6.99-3.53 7.419 7.419 0 0 0-5.452 2.237 7.63 7.63 0 0 0-2.236 5.627 7.489 7.489 0 0 0 2.2 5.522 7.4 7.4 0 0 0 5.452 2.2 9.03 9.03 0 0 0 7.165-3.565l3.879 3.635a12.909 12.909 0 0 1-4.858 3.967 14.688 14.688 0 0 1-6.535 1.485" data-name="Path 327"></path><path fill="#fff" d="M148.923 33.623v-20.27h-7.3V7.796h20.375v5.557h-7.269v20.27Z" data-name="Path 328"></path><path fill="#fff" d="M70.233 39.301h1.755a1.575 1.575 0 0 1 1.7 1.622 1.607 1.607 0 0 1-.455 1.152 1.754 1.754 0 0 1-1.309.47h-.982v2.013h-.711Zm.711 2.582h1a1.025 1.025 0 0 0 .764-.277.952.952 0 0 0 .274-.7.941.941 0 0 0-.253-.668.9.9 0 0 0-.693-.27h-1.088Z" data-name="Path 329"></path><path fill="#fff" d="M78.405 44.557h-.775l-.533-1.365h-2l-.534 1.365h-.769l2.127-5.256h.384Zm-1.55-2.034-.754-1.984-.761 1.984Z" data-name="Path 330"></path><path fill="#fff" d="M83.01 44.557h-.878l-1.366-2.134h-.725v2.134h-.709v-5.256h1.785a1.56 1.56 0 0 1 1.216.469 1.584 1.584 0 0 1 .11 2.048 1.5 1.5 0 0 1-.9.548Zm-1.885-4.58h-1.081v1.775h.939a1.129 1.129 0 0 0 .786-.249.834.834 0 0 0 .274-.647.868.868 0 0 0-.242-.637.906.906 0 0 0-.676-.246" data-name="Path 331"></path><path fill="#fff" d="M85.059 44.558v-4.566h-1.557v-.69h3.826v.69H85.77v4.566Z" data-name="Path 332"></path><path fill="#fff" d="M91.785 43.052v-3.748h.7v5.256h-.37l-3.151-3.727v3.727h-.7v-5.256h.32Z" data-name="Path 333"></path><path fill="#fff" d="M97.278 44.558h-3.272v-5.256h3.272v.676h-2.561v1.574h2.369v.676h-2.369v1.657h2.561Z" data-name="Path 334"></path><path fill="#fff" d="M102.183 44.557h-.875l-1.366-2.134h-.725v2.134h-.711v-5.256h1.785a1.559 1.559 0 0 1 1.216.469 1.584 1.584 0 0 1 .11 2.048 1.5 1.5 0 0 1-.9.548Zm-1.885-4.58h-1.081v1.775h.938a1.13 1.13 0 0 0 .786-.249.835.835 0 0 0 .274-.647.868.868 0 0 0-.242-.637.907.907 0 0 0-.676-.246" data-name="Path 335"></path><path fill="#fff" d="M104.54 44.643a2.066 2.066 0 0 1-1.063-.281 1.809 1.809 0 0 1-.729-.8l.526-.434a1.353 1.353 0 0 0 1.259.839 1.039 1.039 0 0 0 .7-.227.722.722 0 0 0 .263-.569q0-.419-.548-.733-.1-.049-.541-.256a6.069 6.069 0 0 1-.59-.3 1.456 1.456 0 0 1-.79-1.252 1.327 1.327 0 0 1 .434-1.01 1.6 1.6 0 0 1 1.152-.413 1.8 1.8 0 0 1 1.543.775l-.476.455a1.286 1.286 0 0 0-1.06-.562.9.9 0 0 0-.6.2.638.638 0 0 0-.234.515.774.774 0 0 0 .448.676 6.624 6.624 0 0 0 .612.313q.448.213.661.334a1.389 1.389 0 0 1 .761 1.223 1.343 1.343 0 0 1-.5 1.088 1.854 1.854 0 0 1-1.238.42" data-name="Path 336"></path><path fill="#fff" d="M108.171 44.558h-.718v-5.256h.718v2.219h2.639v-2.219h.712v5.256h-.712v-2.354h-2.639Z" data-name="Path 337"></path><path fill="#fff" d="M113.032 39.301h.711v5.256h-.711z" data-name="Rectangle 180"></path><path fill="#fff" d="M115.254 39.301h1.757a1.575 1.575 0 0 1 1.7 1.622 1.608 1.608 0 0 1-.455 1.152 1.754 1.754 0 0 1-1.309.47h-.982v2.013h-.711Zm.711 2.582h1a1.025 1.025 0 0 0 .764-.277.951.951 0 0 0 .274-.7.941.941 0 0 0-.253-.668.9.9 0 0 0-.693-.27h-1.088Z" data-name="Path 338"></path><path fill="#fff" d="M122.615 44.558h-.711v-5.256h3.215v.69h-2.5v1.56h2.184v.69h-2.184Z" data-name="Path 339"></path><path fill="#fff" d="M125.77 41.962a2.651 2.651 0 0 1 .8-1.949 2.716 2.716 0 1 1 3.841 3.841 2.67 2.67 0 0 1-1.942.79 2.648 2.648 0 0 1-2.7-2.681m4.7-.021a1.983 1.983 0 0 0-.576-1.451 1.905 1.905 0 0 0-1.408-.583 1.883 1.883 0 0 0-1.4.59 2.1 2.1 0 0 0-.007 2.881 2.009 2.009 0 0 0 2.817 0 1.951 1.951 0 0 0 .576-1.437" data-name="Path 340"></path><path fill="#fff" d="M136.078 44.557h-.875l-1.366-2.134h-.725v2.134h-.711v-5.256h1.785a1.56 1.56 0 0 1 1.216.469 1.584 1.584 0 0 1 .11 2.048 1.5 1.5 0 0 1-.9.548Zm-1.885-4.58h-1.081v1.775h.939a1.13 1.13 0 0 0 .786-.249.834.834 0 0 0 .274-.647.868.868 0 0 0-.242-.637.906.906 0 0 0-.676-.246" data-name="Path 341"></path><path fill="#fff" d="M72.113 53.059a2.662 2.662 0 0 1-1.92-.754 2.582 2.582 0 0 1-.783-1.935 2.608 2.608 0 0 1 .8-1.963 2.664 2.664 0 0 1 1.928-.775 2.783 2.783 0 0 1 1.323.32 2.38 2.38 0 0 1 .946.832l-.527.441a2.058 2.058 0 0 0-1.728-.9 1.936 1.936 0 0 0-1.423.583 2 2 0 0 0-.583 1.472 1.934 1.934 0 0 0 2 2 2.11 2.11 0 0 0 .981-.235 2.349 2.349 0 0 0 .782-.654l.512.434a2.658 2.658 0 0 1-.985.832 2.892 2.892 0 0 1-1.319.306" data-name="Path 342"></path><path fill="#fff" d="M79.539 52.98h-.775l-.533-1.365h-2l-.534 1.365h-.775l2.127-5.256h.384Zm-1.55-2.034-.754-1.984-.761 1.984Z" data-name="Path 343"></path><path fill="#fff" d="M84.145 52.98h-.875l-1.366-2.134h-.725v2.134h-.709v-5.256h1.785a1.559 1.559 0 0 1 1.216.469 1.584 1.584 0 0 1 .11 2.048 1.5 1.5 0 0 1-.9.548ZM82.26 48.4h-1.081v1.778h.939a1.13 1.13 0 0 0 .786-.249.835.835 0 0 0 .274-.647.868.868 0 0 0-.242-.637.907.907 0 0 0-.676-.246" data-name="Path 344"></path><path fill="#fff" d="M88.006 50.107a1.257 1.257 0 0 1 .729.5 1.476 1.476 0 0 1 .26.864 1.457 1.457 0 0 1-.434 1.06 1.572 1.572 0 0 1-1.195.448h-2.169v-5.255h2.077a1.388 1.388 0 0 1 1.06.4 1.267 1.267 0 0 1 .384.918 1.164 1.164 0 0 1-.192.654 1.039 1.039 0 0 1-.519.413m-.825-1.721h-1.28v1.465h1.259a.824.824 0 0 0 .6-.224.734.734 0 0 0 .228-.544.642.642 0 0 0-.224-.494.84.84 0 0 0-.587-.2m-1.28 3.926h1.351a.989.989 0 0 0 .732-.263.833.833 0 0 0 .277-.626.87.87 0 0 0-.281-.658 1.054 1.054 0 0 0-.757-.267h-1.323Z" data-name="Path 345"></path><path fill="#fff" d="M89.855 50.385a2.651 2.651 0 0 1 .8-1.949 2.716 2.716 0 1 1 3.841 3.841 2.669 2.669 0 0 1-1.942.79 2.648 2.648 0 0 1-2.7-2.682m4.7-.021a1.983 1.983 0 0 0-.576-1.451 1.905 1.905 0 0 0-1.408-.583 1.884 1.884 0 0 0-1.4.59 2.1 2.1 0 0 0-.007 2.881 2.009 2.009 0 0 0 2.817 0 1.951 1.951 0 0 0 .576-1.437" data-name="Path 346"></path><path fill="#fff" d="M100.001 51.473v-3.748h.7v5.256h-.37l-3.151-3.727v3.727h-.7v-5.256h.32Z" data-name="Path 347"></path><path fill="#fff" d="M105.35 52.98v-4.566h-1.557v-.69h3.826v.69h-1.558v4.566Z" data-name="Path 348"></path><path fill="#fff" d="M112.232 52.98h-.875l-1.366-2.134h-.725v2.134h-.711v-5.256h1.785a1.559 1.559 0 0 1 1.216.469 1.584 1.584 0 0 1 .11 2.048 1.5 1.5 0 0 1-.9.548Zm-1.885-4.58h-1.081v1.778h.939a1.13 1.13 0 0 0 .786-.249.834.834 0 0 0 .274-.647.868.868 0 0 0-.242-.637.906.906 0 0 0-.676-.246" data-name="Path 349"></path><path fill="#fff" d="M117.56 52.98h-.775l-.534-1.365h-2l-.533 1.365h-.775l2.127-5.256h.384Zm-1.55-2.034-.754-1.984-.761 1.984Z" data-name="Path 350"></path><path fill="#fff" d="M122.01 51.473v-3.748h.7v5.256h-.37l-3.151-3.727v3.727h-.7v-5.256h.32Z" data-name="Path 351"></path><path fill="#fff" d="M125.567 53.066a2.067 2.067 0 0 1-1.064-.281 1.809 1.809 0 0 1-.729-.8l.526-.434a1.353 1.353 0 0 0 1.259.839 1.039 1.039 0 0 0 .7-.227.722.722 0 0 0 .263-.569q0-.419-.548-.733-.1-.049-.541-.256a6.092 6.092 0 0 1-.59-.3 1.456 1.456 0 0 1-.79-1.252 1.327 1.327 0 0 1 .434-1.01 1.6 1.6 0 0 1 1.152-.413 1.8 1.8 0 0 1 1.543.776l-.477.455a1.286 1.286 0 0 0-1.06-.562.9.9 0 0 0-.6.2.638.638 0 0 0-.234.515.774.774 0 0 0 .448.676 6.62 6.62 0 0 0 .612.313q.448.213.661.334a1.389 1.389 0 0 1 .761 1.223 1.343 1.343 0 0 1-.5 1.088 1.854 1.854 0 0 1-1.238.42" data-name="Path 352"></path><path fill="#fff" d="M128.474 47.725h1.76a1.575 1.575 0 0 1 1.7 1.622 1.607 1.607 0 0 1-.455 1.152 1.754 1.754 0 0 1-1.309.47h-.982v2.013h-.711Zm.711 2.582h1a1.025 1.025 0 0 0 .764-.277.952.952 0 0 0 .274-.7.941.941 0 0 0-.253-.668.9.9 0 0 0-.693-.27h-1.088Z" data-name="Path 353"></path><path fill="#fff" d="M136.646 52.98h-.775l-.533-1.365h-2l-.533 1.365h-.775l2.127-5.256h.384Zm-1.55-2.034-.754-1.984-.761 1.984Z" data-name="Path 354"></path><path fill="#fff" d="M141.252 52.98h-.873l-1.366-2.134h-.725v2.134h-.709v-5.256h1.786a1.56 1.56 0 0 1 1.216.469 1.583 1.583 0 0 1 .11 2.048 1.5 1.5 0 0 1-.9.548Zm-1.885-4.58h-1.081v1.778h.938a1.129 1.129 0 0 0 .786-.249.834.834 0 0 0 .274-.647.868.868 0 0 0-.242-.637.906.906 0 0 0-.676-.246" data-name="Path 355"></path><path fill="#fff" d="M145.575 52.98h-3.272v-5.256h3.272v.676h-2.561v1.572h2.369v.676h-2.369v1.657h2.561Z" data-name="Path 356"></path><path fill="#fff" d="M150.322 51.473v-3.748h.7v5.256h-.37l-3.151-3.727v3.727h-.7v-5.256h.32Z" data-name="Path 357"></path><path fill="#fff" d="M154.938 53.059a2.661 2.661 0 0 1-1.92-.754 2.581 2.581 0 0 1-.783-1.935 2.608 2.608 0 0 1 .8-1.963 2.664 2.664 0 0 1 1.928-.775 2.782 2.782 0 0 1 1.323.32 2.38 2.38 0 0 1 .946.832l-.527.441a2.058 2.058 0 0 0-1.728-.9 1.935 1.935 0 0 0-1.423.583 2 2 0 0 0-.583 1.472 1.934 1.934 0 0 0 2 2 2.111 2.111 0 0 0 .982-.235 2.352 2.352 0 0 0 .782-.654l.512.434a2.659 2.659 0 0 1-.985.832 2.891 2.891 0 0 1-1.319.306" data-name="Path 358"></path><path fill="#fff" d="M161.204 47.724h.79l-1.8 3.365v1.892h-.711v-1.892l-1.778-3.365h.789l1.344 2.66Z" data-name="Path 359"></path></g></svg>
