<svg width="161" height="28" viewBox="0 0 161 28" fill="none" xmlns="http://www.w3.org/2000/svg">
<g clip-path="url(#clip0_3577_2584)">
<path d="M14 14H59" stroke="white" stroke-width="1.5"/>
<path d="M59 14H103" stroke="white" stroke-width="1.5"/>
<path d="M103 14H147" stroke="white" stroke-width="1.5"/>
<path d="M14 27C21.1797 27 27 21.1797 27 14C27 6.8203 21.1797 1 14 1C6.8203 1 1 6.8203 1 14C1 21.1797 6.8203 27 14 27Z" fill="#0A0552" stroke="white" stroke-width="1.5"/>
<path d="M14.2357 20.2042C15.5277 20.2042 16.5817 19.8812 17.3977 19.2182C18.2137 18.5552 18.6387 17.7052 18.6387 16.6682C18.6387 15.8012 18.3837 15.1042 17.8907 14.5942C17.3977 14.0842 16.6327 13.7272 15.5787 13.5062L13.1987 13.0132C12.3827 12.8602 11.8047 12.6392 11.4987 12.3502C11.1927 12.0782 11.0397 11.6532 11.0397 11.0922C11.0397 10.4292 11.2947 9.8852 11.8047 9.4602C12.3147 9.0522 13.0117 8.8312 13.8617 8.8312C14.7287 8.8312 15.4427 9.0352 16.0037 9.4092C16.5477 9.7832 16.8877 10.3102 16.9897 10.9732H18.4007C18.2817 9.9192 17.8227 9.1032 17.0407 8.5252C16.2417 7.9472 15.1707 7.6582 13.8447 7.6582C12.6037 7.6582 11.5837 7.9982 10.8017 8.6442C10.0027 9.3072 9.6117 10.1402 9.6117 11.1432C9.6117 12.0102 9.8497 12.7072 10.3597 13.2172C10.8697 13.7442 11.6517 14.1012 12.7057 14.2882L15.0177 14.7472C15.7827 14.9002 16.3437 15.1382 16.7007 15.4442C17.0407 15.7502 17.2277 16.1922 17.2277 16.7362C17.2277 17.4502 16.9387 18.0112 16.3947 18.4192C15.8507 18.8272 15.1197 19.0312 14.2187 19.0312C13.1307 19.0312 12.2807 18.8102 11.6687 18.3682C11.0567 17.9262 10.6997 17.2632 10.6317 16.4132H9.2207C9.2887 17.6202 9.7817 18.5552 10.6657 19.2182C11.5497 19.8812 12.7397 20.2042 14.2357 20.2042Z" fill="white"/>
<path d="M59 27C66.1797 27 72 21.1797 72 14C72 6.8203 66.1797 1 59 1C51.8203 1 46 6.8203 46 14C46 21.1797 51.8203 27 59 27Z" fill="#0A0552" stroke="white" stroke-width="1.5"/>
<path d="M59.7188 19.9998V7.86182H58.2568V19.9998H59.7188Z" fill="white"/>
<path d="M103 27C110.18 27 116 21.1797 116 14C116 6.8203 110.18 1 103 1C95.8203 1 90 6.8203 90 14C90 21.1797 95.8203 27 103 27Z" fill="#0A0552" stroke="white" stroke-width="1.5"/>
<path d="M98.1313 7.86182V19.9998H99.5593V9.64682H99.5933L106.495 19.9998H107.855V7.86182H106.444V17.5518H106.41L99.9333 7.86182H98.1313Z" fill="white"/>
<path d="M147 27C154.18 27 160 21.1797 160 14C160 6.8203 154.18 1 147 1C139.82 1 134 6.8203 134 14C134 21.1797 139.82 27 147 27Z" fill="#0A0552" stroke="white" stroke-width="1.5"/>
<path d="M151.338 18.7758H144.572V14.5598H150.573V13.3188H144.572V9.08582H151.321V7.86182H143.127V19.9998H151.338V18.7758Z" fill="white"/>
</g>
<defs>
<clipPath id="clip0_3577_2584">
<rect width="161" height="28" fill="white"/>
</clipPath>
</defs>
</svg>
