<svg width="79" height="32" viewBox="0 0 79 32" fill="none" xmlns="http://www.w3.org/2000/svg">
<path d="M0.672 10L1.988 0.199999H3.122L5.698 5.058L8.246 0.199999H9.394L10.696 10H9.296L8.302 2.006L8.652 2.062L5.712 7.676L2.716 2.062L3.066 2.006L2.072 10H0.672ZM15.2013 10.14C14.4266 10.14 13.7756 9.98367 13.2483 9.671C12.7256 9.35367 12.3289 8.929 12.0583 8.397C11.7923 7.86033 11.6593 7.26533 11.6593 6.612C11.6593 5.93067 11.7876 5.317 12.0443 4.771C12.3056 4.225 12.7046 3.79333 13.2413 3.476C13.7779 3.15867 14.4639 3 15.2993 3C15.6586 3 15.9969 3.03733 16.3143 3.112C16.6363 3.182 16.9233 3.28 17.1753 3.406L16.9793 4.512C16.7226 4.39067 16.4496 4.295 16.1603 4.225C15.8756 4.155 15.5793 4.12 15.2713 4.12C14.5153 4.12 13.9389 4.33467 13.5423 4.764C13.1456 5.19333 12.9473 5.79067 12.9473 6.556C12.9473 7.30267 13.1363 7.90233 13.5143 8.355C13.8923 8.80767 14.4686 9.034 15.2433 9.034C15.5606 9.034 15.8639 8.99667 16.1533 8.922C16.4473 8.84733 16.7273 8.74467 16.9933 8.614L17.1613 9.622C16.9746 9.75267 16.7016 9.87167 16.3423 9.979C15.9829 10.0863 15.6026 10.14 15.2013 10.14ZM23.6476 10L20.0216 4.806L23.6476 0.199999H25.2576L21.5336 4.778L25.2996 10H23.6476ZM18.5516 10V0.199999H19.8816V10H18.5516ZM26.5571 10V3.14H27.8171V10H26.5571ZM26.5571 1.6V0.199999H27.8171V1.6H26.5571ZM29.5239 10V3.14H30.5039L30.7559 4.456L30.2659 4.246C30.7279 3.73267 31.1783 3.39667 31.6169 3.238C32.0603 3.07933 32.4919 3 32.9119 3C33.9153 3 34.6316 3.28933 35.0609 3.868C35.4949 4.44667 35.7119 5.23067 35.7119 6.22V10H34.4519V6.22C34.4519 5.492 34.3166 4.96 34.0459 4.624C33.7753 4.288 33.3133 4.12 32.6599 4.12C32.1979 4.12 31.7733 4.22267 31.3859 4.428C31.0033 4.62867 30.7513 4.95067 30.6299 5.394L30.7839 4.624V10H29.5239ZM39.2902 10.14C38.6836 10.14 38.1796 10.0677 37.7782 9.923C37.3816 9.77833 37.1016 9.65 36.9382 9.538L37.0922 8.32C37.2416 8.45067 37.5052 8.6 37.8832 8.768C38.2612 8.936 38.7116 9.02 39.2342 9.02C39.6776 9.02 40.0159 8.94533 40.2492 8.796C40.4872 8.64667 40.6062 8.43667 40.6062 8.166C40.6062 7.928 40.5292 7.73667 40.3752 7.592C40.2259 7.44267 40.0439 7.326 39.8292 7.242C39.6192 7.15333 39.4209 7.08333 39.2342 7.032C38.9216 6.948 38.5972 6.843 38.2612 6.717C37.9299 6.58633 37.6499 6.39267 37.4212 6.136C37.1926 5.87933 37.0782 5.52 37.0782 5.058C37.0782 4.708 37.1622 4.37667 37.3302 4.064C37.4982 3.74667 37.7712 3.49 38.1492 3.294C38.5272 3.098 39.0289 3 39.6542 3C40.1116 3 40.4826 3.049 40.7672 3.147C41.0566 3.24033 41.3062 3.34067 41.5162 3.448L41.3622 4.596C41.1616 4.428 40.9282 4.28567 40.6622 4.169C40.3962 4.05233 40.0696 3.994 39.6822 3.994C39.2902 3.994 38.9706 4.06867 38.7232 4.218C38.4759 4.36267 38.3522 4.596 38.3522 4.918C38.3522 5.24 38.4829 5.46867 38.7442 5.604C39.0102 5.73933 39.4116 5.88867 39.9482 6.052C40.1162 6.09867 40.3099 6.16633 40.5292 6.255C40.7532 6.34367 40.9702 6.46267 41.1802 6.612C41.3902 6.76133 41.5629 6.95733 41.6982 7.2C41.8382 7.438 41.9082 7.73667 41.9082 8.096C41.9082 8.39933 41.8359 8.70967 41.6912 9.027C41.5466 9.33967 41.2852 9.60333 40.9072 9.818C40.5292 10.0327 39.9902 10.14 39.2902 10.14ZM46.4311 10.14C45.6238 10.14 44.9448 9.97433 44.3941 9.643C43.8434 9.31167 43.4258 8.873 43.1411 8.327C42.8611 7.77633 42.7211 7.172 42.7211 6.514C42.7211 5.87467 42.8518 5.289 43.1131 4.757C43.3791 4.225 43.7618 3.80033 44.2611 3.483C44.7651 3.161 45.3718 3 46.0811 3C46.6504 3 47.1568 3.11433 47.6001 3.343C48.0481 3.567 48.3981 3.896 48.6501 4.33C48.9068 4.75933 49.0351 5.282 49.0351 5.898C49.0351 5.996 49.0304 6.10333 49.0211 6.22C49.0164 6.332 49.0024 6.44867 48.9791 6.57H44.0091C44.0698 7.20467 44.2214 7.69933 44.4641 8.054C44.7068 8.40867 45.0124 8.65833 45.3811 8.803C45.7498 8.94767 46.1511 9.02 46.5851 9.02C46.9024 9.02 47.2338 8.98733 47.5791 8.922C47.9244 8.85667 48.2511 8.754 48.5591 8.614L48.7271 9.608C48.4611 9.72467 48.1368 9.84367 47.7541 9.965C47.3714 10.0817 46.9304 10.14 46.4311 10.14ZM44.1211 5.702H47.7331C47.7331 5.38 47.6724 5.1 47.5511 4.862C47.4298 4.624 47.2454 4.442 46.9981 4.316C46.7508 4.18533 46.4358 4.12 46.0531 4.12C45.4931 4.12 45.0614 4.26 44.7581 4.54C44.4594 4.81533 44.2471 5.20267 44.1211 5.702ZM50.7548 13.388L52.3368 9.692L49.4808 3.14H50.8808L53.0228 8.236L54.9548 3.14H56.3548L52.1548 13.388H50.7548ZM3.92 28.196C3.514 28.196 3.108 28.1657 2.702 28.105C2.296 28.0443 1.92033 27.9673 1.575 27.874C1.22967 27.776 0.942667 27.6733 0.714 27.566L0.896 26.152C1.148 26.2733 1.45133 26.3993 1.806 26.53C2.16533 26.6607 2.55267 26.7703 2.968 26.859C3.38333 26.9477 3.80333 26.992 4.228 26.992C4.858 26.992 5.35733 26.8777 5.726 26.649C6.09933 26.4157 6.286 26.054 6.286 25.564C6.286 25.1953 6.19267 24.8943 6.006 24.661C5.81933 24.423 5.537 24.22 5.159 24.052C4.78567 23.884 4.31667 23.716 3.752 23.548C3.21533 23.3893 2.72067 23.2027 2.268 22.988C1.81533 22.7687 1.45133 22.477 1.176 22.113C0.905333 21.7443 0.77 21.2567 0.77 20.65C0.77 20.132 0.903 19.6747 1.169 19.278C1.43967 18.8767 1.834 18.564 2.352 18.34C2.87467 18.116 3.514 18.004 4.27 18.004C4.914 18.004 5.50433 18.074 6.041 18.214C6.58233 18.354 7.028 18.508 7.378 18.676L7.238 20.09C6.706 19.7727 6.19733 19.5463 5.712 19.411C5.23133 19.2757 4.732 19.208 4.214 19.208C3.64 19.208 3.164 19.3153 2.786 19.53C2.41267 19.7447 2.226 20.0947 2.226 20.58C2.226 20.9067 2.31 21.175 2.478 21.385C2.646 21.5903 2.89567 21.7677 3.227 21.917C3.55833 22.0617 3.97133 22.2087 4.466 22.358C5.14733 22.5633 5.733 22.799 6.223 23.065C6.713 23.3263 7.08867 23.6507 7.35 24.038C7.61133 24.4207 7.742 24.8967 7.742 25.466C7.742 25.886 7.66267 26.264 7.504 26.6C7.34533 26.936 7.10733 27.223 6.79 27.461C6.47267 27.699 6.07367 27.881 5.593 28.007C5.117 28.133 4.55933 28.196 3.92 28.196ZM11.4118 28.14C10.8751 28.14 10.4178 28.0327 10.0398 27.818C9.66175 27.5987 9.37242 27.2673 9.17175 26.824C8.97575 26.3807 8.87775 25.816 8.87775 25.13V21.14H10.1378V24.78C10.1378 25.508 10.2614 26.0633 10.5088 26.446C10.7608 26.8287 11.1691 27.02 11.7338 27.02C12.1211 27.02 12.4804 26.9267 12.8118 26.74C13.1431 26.5533 13.3718 26.2547 13.4978 25.844L13.3158 26.53V21.14H14.5758V28H13.4558L13.2038 26.656L13.5398 26.88C13.3111 27.3047 13.0311 27.622 12.6998 27.832C12.3731 28.0373 11.9438 28.14 11.4118 28.14ZM18.2355 28.14C17.6289 28.14 17.1249 28.0677 16.7235 27.923C16.3269 27.7783 16.0469 27.65 15.8835 27.538L16.0375 26.32C16.1869 26.4507 16.4505 26.6 16.8285 26.768C17.2065 26.936 17.6569 27.02 18.1795 27.02C18.6229 27.02 18.9612 26.9453 19.1945 26.796C19.4325 26.6467 19.5515 26.4367 19.5515 26.166C19.5515 25.928 19.4745 25.7367 19.3205 25.592C19.1712 25.4427 18.9892 25.326 18.7745 25.242C18.5645 25.1533 18.3662 25.0833 18.1795 25.032C17.8669 24.948 17.5425 24.843 17.2065 24.717C16.8752 24.5863 16.5952 24.3927 16.3665 24.136C16.1379 23.8793 16.0235 23.52 16.0235 23.058C16.0235 22.708 16.1075 22.3767 16.2755 22.064C16.4435 21.7467 16.7165 21.49 17.0945 21.294C17.4725 21.098 17.9742 21 18.5995 21C19.0569 21 19.4279 21.049 19.7125 21.147C20.0019 21.2403 20.2515 21.3407 20.4615 21.448L20.3075 22.596C20.1069 22.428 19.8735 22.2857 19.6075 22.169C19.3415 22.0523 19.0149 21.994 18.6275 21.994C18.2355 21.994 17.9159 22.0687 17.6685 22.218C17.4212 22.3627 17.2975 22.596 17.2975 22.918C17.2975 23.24 17.4282 23.4687 17.6895 23.604C17.9555 23.7393 18.3569 23.8887 18.8935 24.052C19.0615 24.0987 19.2552 24.1663 19.4745 24.255C19.6985 24.3437 19.9155 24.4627 20.1255 24.612C20.3355 24.7613 20.5082 24.9573 20.6435 25.2C20.7835 25.438 20.8535 25.7367 20.8535 26.096C20.8535 26.3993 20.7812 26.7097 20.6365 27.027C20.4919 27.3397 20.2305 27.6033 19.8525 27.818C19.4745 28.0327 18.9355 28.14 18.2355 28.14ZM24.4524 28.14C24.0184 28.14 23.6708 28.0607 23.4094 27.902C23.1481 27.7433 22.9568 27.5403 22.8354 27.293C22.7188 27.041 22.6604 26.7773 22.6604 26.502V22.12H21.4844L21.5964 21.14H22.6604V19.446L23.9204 19.32V21.14H25.7264V22.12H23.9204V25.732C23.9204 26.1707 23.9461 26.488 23.9974 26.684C24.0488 26.88 24.1748 27.0037 24.3754 27.055C24.5808 27.1063 24.9098 27.132 25.3624 27.132H25.6844L25.5864 28.14H24.4524ZM28.3992 28.14C27.9746 28.14 27.6036 28.0537 27.2862 27.881C26.9689 27.7083 26.7216 27.4727 26.5442 27.174C26.3716 26.8753 26.2852 26.5347 26.2852 26.152C26.2852 25.7647 26.3692 25.4333 26.5372 25.158C26.7099 24.878 26.9386 24.647 27.2232 24.465C27.5126 24.2783 27.8346 24.1313 28.1892 24.024C28.5439 23.912 28.9102 23.8327 29.2882 23.786C29.6709 23.7347 30.0372 23.7067 30.3872 23.702C30.3872 23.0487 30.2589 22.6217 30.0022 22.421C29.7456 22.2203 29.3746 22.12 28.8892 22.12C28.6326 22.12 28.3572 22.1597 28.0632 22.239C27.7739 22.3183 27.4472 22.484 27.0832 22.736L26.9012 21.714C27.1766 21.504 27.5196 21.3337 27.9302 21.203C28.3409 21.0677 28.7726 21 29.2252 21C29.8039 21 30.2706 21.1027 30.6252 21.308C30.9799 21.5087 31.2389 21.8493 31.4022 22.33C31.5656 22.8107 31.6472 23.464 31.6472 24.29V25.69C31.6472 26.0167 31.6612 26.2873 31.6892 26.502C31.7219 26.712 31.7919 26.8707 31.8992 26.978C32.0112 27.0807 32.1886 27.132 32.4312 27.132H32.5572L32.3612 28.14H32.2632C31.8572 28.14 31.5422 28.1003 31.3182 28.021C31.0989 27.9417 30.9309 27.8273 30.8142 27.678C30.6976 27.5287 30.5926 27.3467 30.4992 27.132C30.2426 27.4307 29.9392 27.6733 29.5892 27.86C29.2392 28.0467 28.8426 28.14 28.3992 28.14ZM28.6372 27.132C28.9732 27.132 29.2976 27.048 29.6102 26.88C29.9276 26.712 30.1866 26.488 30.3872 26.208V24.57C29.7199 24.5933 29.1786 24.6587 28.7632 24.766C28.3526 24.8733 28.0516 25.0343 27.8602 25.249C27.6689 25.4637 27.5732 25.7413 27.5732 26.082C27.5732 26.4507 27.6712 26.719 27.8672 26.887C28.0679 27.0503 28.3246 27.132 28.6372 27.132ZM33.5298 28V21.14H34.7898V28H33.5298ZM33.5298 19.6V18.2H34.7898V19.6H33.5298ZM36.4966 28V21.14H37.4766L37.7286 22.456L37.2386 22.246C37.7006 21.7327 38.1509 21.3967 38.5896 21.238C39.0329 21.0793 39.4646 21 39.8846 21C40.8879 21 41.6042 21.2893 42.0336 21.868C42.4676 22.4467 42.6846 23.2307 42.6846 24.22V28H41.4246V24.22C41.4246 23.492 41.2892 22.96 41.0186 22.624C40.7479 22.288 40.2859 22.12 39.6326 22.12C39.1706 22.12 38.7459 22.2227 38.3586 22.428C37.9759 22.6287 37.7239 22.9507 37.6026 23.394L37.7566 22.624V28H36.4966ZM45.9129 28.14C45.4882 28.14 45.1172 28.0537 44.7999 27.881C44.4826 27.7083 44.2352 27.4727 44.0579 27.174C43.8852 26.8753 43.7989 26.5347 43.7989 26.152C43.7989 25.7647 43.8829 25.4333 44.0509 25.158C44.2236 24.878 44.4522 24.647 44.7369 24.465C45.0262 24.2783 45.3482 24.1313 45.7029 24.024C46.0576 23.912 46.4239 23.8327 46.8019 23.786C47.1846 23.7347 47.5509 23.7067 47.9009 23.702C47.9009 23.0487 47.7726 22.6217 47.5159 22.421C47.2592 22.2203 46.8882 22.12 46.4029 22.12C46.1462 22.12 45.8709 22.1597 45.5769 22.239C45.2876 22.3183 44.9609 22.484 44.5969 22.736L44.4149 21.714C44.6902 21.504 45.0332 21.3337 45.4439 21.203C45.8546 21.0677 46.2862 21 46.7389 21C47.3176 21 47.7842 21.1027 48.1389 21.308C48.4936 21.5087 48.7526 21.8493 48.9159 22.33C49.0792 22.8107 49.1609 23.464 49.1609 24.29V25.69C49.1609 26.0167 49.1749 26.2873 49.2029 26.502C49.2356 26.712 49.3056 26.8707 49.4129 26.978C49.5249 27.0807 49.7022 27.132 49.9449 27.132H50.0709L49.8749 28.14H49.7769C49.3709 28.14 49.0559 28.1003 48.8319 28.021C48.6126 27.9417 48.4446 27.8273 48.3279 27.678C48.2112 27.5287 48.1062 27.3467 48.0129 27.132C47.7562 27.4307 47.4529 27.6733 47.1029 27.86C46.7529 28.0467 46.3562 28.14 45.9129 28.14ZM46.1509 27.132C46.4869 27.132 46.8112 27.048 47.1239 26.88C47.4412 26.712 47.7002 26.488 47.9009 26.208V24.57C47.2336 24.5933 46.6922 24.6587 46.2769 24.766C45.8662 24.8733 45.5652 25.0343 45.3739 25.249C45.1826 25.4637 45.0869 25.7413 45.0869 26.082C45.0869 26.4507 45.1849 26.719 45.3809 26.887C45.5816 27.0503 45.8382 27.132 46.1509 27.132ZM54.4175 28.14C53.9368 28.14 53.4701 28.0257 53.0175 27.797C52.5695 27.5637 52.2568 27.2207 52.0795 26.768L52.3875 26.544L52.1495 28H51.0295V17.5H52.2895V22.484L52.0235 22.288C52.2568 21.91 52.5905 21.602 53.0245 21.364C53.4585 21.1213 53.9228 21 54.4175 21C55.0568 21 55.6075 21.168 56.0695 21.504C56.5315 21.8353 56.8861 22.274 57.1335 22.82C57.3855 23.3613 57.5115 23.9447 57.5115 24.57C57.5115 25.2373 57.3738 25.8417 57.0985 26.383C56.8231 26.9197 56.4521 27.3467 55.9855 27.664C55.5188 27.9813 54.9961 28.14 54.4175 28.14ZM54.2635 27.02C54.6648 27.02 55.0125 26.9103 55.3065 26.691C55.6005 26.467 55.8268 26.1707 55.9855 25.802C56.1441 25.4287 56.2235 25.018 56.2235 24.57C56.2235 24.1033 56.1441 23.6857 55.9855 23.317C55.8268 22.9483 55.6005 22.6567 55.3065 22.442C55.0125 22.2273 54.6648 22.12 54.2635 22.12C53.9041 22.12 53.5681 22.211 53.2555 22.393C52.9475 22.5703 52.6978 22.841 52.5065 23.205C52.3151 23.5643 52.2195 24.0193 52.2195 24.57C52.2195 25.144 52.3151 25.6107 52.5065 25.97C52.6978 26.3293 52.9475 26.5953 53.2555 26.768C53.5681 26.936 53.9041 27.02 54.2635 27.02ZM58.8091 28V21.14H60.0691V28H58.8091ZM58.8091 19.6V18.2H60.0691V19.6H58.8091ZM63.5399 28.14C63.0965 28.14 62.7442 28.0607 62.4829 27.902C62.2262 27.7387 62.0419 27.531 61.9299 27.279C61.8179 27.027 61.7619 26.7633 61.7619 26.488V17.5H63.0219V25.76C63.0219 26.152 63.0475 26.446 63.0989 26.642C63.1502 26.838 63.2529 26.9687 63.4069 27.034C63.5655 27.0993 63.8059 27.132 64.1279 27.132L63.9459 28.14H63.5399ZM65.0845 28V21.14H66.3445V28H65.0845ZM65.0845 19.6V18.2H66.3445V19.6H65.0845ZM70.4173 28.14C69.9833 28.14 69.6356 28.0607 69.3743 27.902C69.1129 27.7433 68.9216 27.5403 68.8003 27.293C68.6836 27.041 68.6253 26.7773 68.6253 26.502V22.12H67.4493L67.5613 21.14H68.6253V19.446L69.8853 19.32V21.14H71.6913V22.12H69.8853V25.732C69.8853 26.1707 69.9109 26.488 69.9623 26.684C70.0136 26.88 70.1396 27.0037 70.3403 27.055C70.5456 27.1063 70.8746 27.132 71.3273 27.132H71.6493L71.5513 28.14H70.4173ZM73.2861 31.388L74.8681 27.692L72.0121 21.14H73.4121L75.5541 26.236L77.4861 21.14H78.8861L74.6861 31.388H73.2861Z" fill="white"/>
</svg>
