<svg viewBox="0 0 101.365 34"  width="100" height="30" xmlns="http://www.w3.org/2000/svg" xmlns:xlink="http://www.w3.org/1999/xlink">
          <defs>
            <clipPath id="logo-nav">
              <path
                fill="#fff"
                d="M0 0h101.365v34H0z"
                data-name="Rectangle 144"
              ></path>
            </clipPath>
          </defs>
          <g clip-path="url(#logo-nav)" data-name="Group 3394">
            <path
              fill="#fff"
              d="M14.845 34a.906.906 0 0 1-.454-.122L.455 25.833a.909.909 0 1 1 .909-1.574l13.481 7.783 13.481-7.783a.909.909 0 1 1 .909 1.574L15.3 33.878a.906.906 0 0 1-.454.122"
              data-name="Path 164"
            ></path>
            <path
              fill="#08a17f"
              d="M28.778 14.062a.9.9 0 0 1-.45-.122L14.844 6.156l-9.846 5.685a.909.909 0 1 1-.909-1.574l10.3-5.947a.908.908 0 0 1 .909 0l13.935 8.046a.909.909 0 0 1-.455 1.7"
              data-name="Path 165"
            ></path>
            <path
              fill="#fff"
              d="M14.845 29.802a.906.906 0 0 1-.454-.122L.455 21.633a.909.909 0 1 1 .909-1.574l13.481 7.783 9.846-5.684a.90924502.90924502 0 1 1 .909 1.575L15.3 29.68a.907.907 0 0 1-.454.122"
              data-name="Path 166"
            ></path>
            <path
              fill="#08a17f"
              d="M28.779 18.259a.9.9 0 0 1-.453-.122L14.844 10.35l-6.21 3.586a.909.909 0 1 1-.909-1.574l6.665-3.848a.908.908 0 0 1 .909 0l13.935 8.045a.909.909 0 0 1-.455 1.7"
              data-name="Path 167"
            ></path>
            <path
              fill="#fff"
              d="M14.845 25.605a.906.906 0 0 1-.454-.122L.455 17.438a.909.909 0 0 1 .909-1.574l13.481 7.783 6.21-3.586a.909.909 0 1 1 .909 1.574L15.3 25.483a.906.906 0 0 1-.454.122"
              data-name="Path 168"
            ></path>
            <path
              fill="#08a17f"
              d="M28.784 22.456a.9.9 0 0 1-.453-.122l-13.486-7.783-2.575 1.487a.909.909 0 0 1-.909-1.574l3.029-1.749a.908.908 0 0 1 .909 0l13.935 8.045a.909.909 0 0 1-.455 1.7"
              data-name="Path 169"
            ></path>
            <path
              fill="#fff"
              d="M14.845 21.407a.906.906 0 0 1-.454-.122L.455 13.24a.909.909 0 1 1 .909-1.574l13.481 7.783 2.575-1.487a.909.909 0 0 1 .909 1.574L15.3 21.283a.908.908 0 0 1-.454.122"
              data-name="Path 170"
            ></path>
            <path
              fill="#08a17f"
              d="M28.779 9.863a.9.9 0 0 1-.453-.122L14.845 1.958 1.364 9.741a.909.909 0 1 1-.909-1.574L14.39.122a.908.908 0 0 1 .909 0l13.935 8.045a.909.909 0 0 1-.455 1.7"
              data-name="Path 171"
            ></path>
            <path
              fill="#fff"
              d="M42.54 26.035h-3.659V7.995h6.879c4.947 0 6.441 3.452 6.441 5.849a6.074 6.074 0 0 1-6.106 5.926h-3.556Zm6-12.187a2.432 2.432 0 0 0-2.654-2.525h-3.349v5.076h3.452a2.482 2.482 0 0 0 2.551-2.551"
              data-name="Path 172"
            ></path>
            <path
              fill="#fff"
              d="M60.226 7.763h.258l8.425 18.267h-4.045l-1.78-4.251h-5.46l-1.752 4.251h-4.071Zm-1.34 11h2.937l-1.469-3.53Z"
              data-name="Path 173"
            ></path>
            <path
              fill="#fff"
              d="M83.146 13.432a6.662 6.662 0 0 0-4.638-2.293c-4.612 0-5.256 4.38-5.256 5.849s.67 5.823 5.282 5.823a7.821 7.821 0 0 0 4.844-2.087l2.061 2.5a9.429 9.429 0 0 1-6.931 3.04c-6.879 0-8.966-5.411-8.966-9.275 0-3.762 2.087-9.249 8.966-9.249a8.923 8.923 0 0 1 7.034 3.375Z"
              data-name="Path 174"
            ></path>
            <path
              fill="#fff"
              d="M92.76 11.345h-4.87v-3.35h13.475v3.35h-4.921v14.69H92.76Z"
              data-name="Path 175"
            ></path>
          </g>
        </svg>
