<?xml version="1.0" encoding="utf-8"?>
<!-- Generator: Adobe Illustrator 25.0.1, SVG Export Plug-In . SVG Version: 6.00 Build 0)  -->
<svg version="1.1" id="Layer_1" xmlns="http://www.w3.org/2000/svg" xmlns:xlink="http://www.w3.org/1999/xlink" x="0px" y="0px"
	 viewBox="0 0 713.5 178" style="enable-background:new 0 0 713.5 178;" xml:space="preserve">
<style type="text/css">
	.st0{fill:#FFFFFF;}
</style>
<g>
	<g>
		<g>
			<path class="st0" d="M161.8,116.9c2.2-5.9,3.6-12.1,4.2-18.6c-4,2.1-12.1,3.3-14,3.8c-2.2,14.3-7.9,22.9-18.8,33.3
				c-13.5,12.9-27.6,18.4-46.7,18.4c-19.1,0-33.6-5.5-47.1-18.4c-10.9-10.4-16.6-19.2-18.8-33.6c-1.8-0.4-9.5-1.3-13.6-3.4
				c0.1,1.4,0.3,2.9,0.5,4.3L7.4,103c0.7,4.7,1.9,9.3,3.5,13.6l-7.9,6.6c0,0-1.2,1.1-0.1,3.1l6.2,11.1c1.1,2,2.8,1.7,2.8,1.7
				l10.1-2.5c3.7,4.8,8,9.2,12.8,13.1l-3.2,9.2c0,0-0.4,1.5,1.6,2.8l11.2,6.6c2.1,1.2,3.3,0.1,3.3,0.1l7.2-6.9
				c6.1,2.5,12.6,4.3,19.4,5.2l2.4,9.6c0,0,0.5,1.5,2.9,1.5h13.1c2.4,0,2.9-1.5,2.9-1.5l2.4-9.6c6.9-0.9,13.5-2.7,19.7-5.2l7.1,6.8
				c0,0,1.2,1.1,3.3-0.1l11.2-6.6c2-1.2,1.6-2.8,1.6-2.8l-3.2-9.1c4.9-3.9,9.2-8.3,13-13.2l9.8,2.4c0,0,1.6,0.3,2.8-1.7l6.2-11.1
				c1.1-2-0.1-3.1-0.1-3.1L161.8,116.9z"/>
			<path class="st0" d="M24.3,74.8c-0.8-0.1-1.7-0.1-2.5-0.1c-0.2,0-0.6,0-1.2,0c0.6-3.2,1.5-6.4,2.5-9.6c0.4,0.3,0.7,0.4,0.9,0.5
				c0.8,0.5,1.5,0.9,2.3,1.2C25.5,69.4,24.8,72,24.3,74.8z"/>
			<g>
				<path class="st0" d="M151,74.7c0,0-0.1,0-0.1,0c-0.1,0-0.1,0-0.1,0L151,74.7z"/>
				<path class="st0" d="M148.4,65.7c0,0,0.1,0,0.1-0.1c0,0,0.1,0,0.1-0.1L148.4,65.7z"/>
				<path class="st0" d="M148.6,65.7c-0.8,0.5-1.5,0.9-2.3,1.2c0.9,2.5,1.6,5.2,2.1,7.9c0.8-0.1,1.6-0.1,2.5-0.1c0.2,0,0.6,0,1.1,0
					c-0.6-3.2-1.5-6.4-2.5-9.6C149,65.4,148.7,65.6,148.6,65.7z"/>
			</g>
			<path class="st0" d="M41.6,42.3c-1.2,1.2-2.3,2.4-3.4,3.7c-0.7-0.5-1.4-1-2.2-1.4c-0.2-0.1-0.4-0.3-0.9-0.5
				c2.3-2.8,4.9-5.3,7.6-7.7c0.1,0.3,0.3,0.5,0.4,0.6c0.5,0.9,1,1.7,1.6,2.5C43.5,40.5,42.5,41.4,41.6,42.3z"/>
			<path class="st0" d="M63.5,24.2c3.6-1.3,7.3-2.3,11-3c0,0.3,0,0.6,0,0.7c0,1,0,2,0.1,2.9c-3.2,0.6-6.4,1.5-9.5,2.6
				c-0.4-0.8-0.8-1.7-1.3-2.5C63.8,24.7,63.7,24.5,63.5,24.2z"/>
			<path class="st0" d="M109.1,24.9c-0.5,0.8-1,1.7-1.3,2.5c-3-1.1-6.1-1.9-9.2-2.5c0.1-0.9,0.2-1.9,0.1-3c0-0.1,0-0.4,0-0.7
				c3.7,0.7,7.3,1.7,10.8,2.9C109.3,24.5,109.1,24.7,109.1,24.9z"/>
			<path class="st0" d="M131.4,42.3c-0.9-0.9-1.9-1.8-3-2.8c0.6-0.7,1.1-1.6,1.6-2.5c0.1-0.1,0.2-0.3,0.4-0.6
				c1.2,1.1,2.5,2.2,3.6,3.3c1.4,1.3,2.7,2.8,4,4.4c-0.5,0.2-0.7,0.4-0.9,0.5c-0.8,0.4-1.5,0.9-2.2,1.4
				C133.7,44.7,132.5,43.5,131.4,42.3z"/>
			<path class="st0" d="M86.5,149.9c31.8,0,58.2-23.2,63.3-53.5c-8.3-1.1-8.9-8.5-8.9-10.7h-0.1c-0.5,29.7-24.7,53.5-54.5,53.5
				c-29.4,0-53.4-23.4-54.4-52.5c0-0.4,0-0.7,0-1.1h-0.1c0,2.1-0.5,9.5-8.7,10.7c2.2,13.1,8.3,25.1,17.9,34.7
				C53.2,143.2,69.3,149.9,86.5,149.9z"/>
			<path class="st0" d="M33.4,86.6c0,0,0.6-9.3-8.3-10.7c-1-0.2-2.1-0.2-3.4-0.2c0,0-0.7-0.1-2.4,0.3c-2.9,0.8-8.9,3.2-19.2,11
				c4.3,3.1,7.9,5.3,10.8,6.9c3.8,2.1,6.5,3.1,8.3,3.5c2,0.5,2.9,0.3,2.9,0.3c1.1,0,2.1,0,3-0.2c7.9-1.2,8.4-8.4,8.4-10.4
				C33.4,86.8,33.4,86.6,33.4,86.6z"/>
			<path class="st0" d="M97.5,19.9c-0.6-2.8-2.7-8.7-10.9-19.9c-8.1,11.1-10.3,17.1-10.8,19.9c-0.3,1.4-0.2,2-0.2,2
				c-0.1,1.5,0,2.7,0.3,3.9c1.7,8.4,10.7,7.7,10.7,7.7s8.9,0.7,10.7-7.7c0.2-1.1,0.4-2.4,0.3-3.9C97.6,21.8,97.7,21.2,97.5,19.9z"/>
			<path class="st0" d="M153.7,76.1c-1.9-0.5-2.7-0.4-2.7-0.4c-1.2-0.1-2.2,0-3.2,0.1c-9.1,1.3-8.5,10.7-8.5,10.7s0,0.2,0,0.6
				c0,2.1,0.6,9.3,8.6,10.4c0.9,0.1,1.8,0.2,2.8,0.1c0,0,0.9,0.2,3.1-0.4c1.8-0.5,4.5-1.5,8.3-3.6c2.9-1.6,6.3-3.7,10.6-6.8
				C162.6,79.4,156.7,76.9,153.7,76.1z"/>
			<path class="st0" d="M139.7,44.6c-1.6,0.5-2.1,0.9-2.1,0.9c-1.2,0.6-2.2,1.3-3,1.9c-6.8,5.7-1.6,13.3-1.6,13.3s3.9,8.4,12.3,5.4
				c1-0.4,2-0.9,3.2-1.6c0,0,0.7-0.2,1.9-1.3c2.2-2,6.2-7,11.7-19C148.9,42.8,142.6,43.8,139.7,44.6z"/>
			<path class="st0" d="M130.5,12.1c-12.4,5.4-17.3,9.5-19.3,11.6c-1,1.1-1.2,1.7-1.2,1.7c-0.8,1.2-1.3,2.3-1.7,3.4
				c-2.9,8.2,5.4,12.2,5.4,12.2s7.4,5.2,13.1-1.2c0.8-0.8,1.5-1.9,2.2-3.2c0,0,0.4-0.4,0.9-1.8C130.8,31.9,131.9,25.7,130.5,12.1z"
				/>
			<path class="st0" d="M64.6,28.7c-0.4-1.1-0.9-2.2-1.7-3.4c0,0-0.2-0.6-1.2-1.7c-1.9-2.1-6.9-6.2-19.3-11.6
				C41,25.7,42.1,32,43.1,34.7c0.4,1.3,0.8,1.8,0.8,1.8c0.7,1.3,1.4,2.3,2.2,3.2c5.7,6.4,13.1,1.2,13.1,1.2S67.4,36.9,64.6,28.7z"/>
			<path class="st0" d="M38.3,47.5c-0.8-0.7-1.8-1.3-3-1.9c0,0-0.5-0.4-2.1-0.9c-2.8-0.9-9.2-1.8-22.3-0.3c5.4,12,9.5,17,11.7,19
				c1.2,1.1,1.9,1.3,1.9,1.3c1.1,0.7,2.2,1.2,3.2,1.6c8.4,2.9,12.3-5.4,12.3-5.4S45.2,53.2,38.3,47.5z"/>
		</g>
	</g>
	<g>
		<path class="st0" d="M87.6,66.7c13.4,0,24.2-5.4,24.2-12.1c0-6.7-10.9-12.1-24.2-12.1c-13.4,0-24.2,5.4-24.2,12.1
			C63.3,61.3,74.2,66.7,87.6,66.7z"/>
		<path class="st0" d="M77.4,72.2c-1.7-0.4-22.7-5.9-19.2-17.6l0,0c-6.8,6.8-11.2,16-12.1,26.2l0,0C57,93.7,85,99.8,85,99.8
			s0-14.6-0.1-19.5C84.9,77.5,83.7,73.5,77.4,72.2z"/>
		<path class="st0" d="M46.1,87.4c1.7,20.5,18.2,36.9,38.8,38.1c0,0,0-8.3,0-11.7c0-5.4,0.1-8.2-6.3-9.9
			C56.7,98.2,46.1,87.4,46.1,87.4z"/>
		<path class="st0" d="M97.9,72.2c1.7-0.4,22.7-5.9,19.2-17.6l0,0c6.8,6.8,11.2,16,12,26.2l0,0c-10.8,13-38.8,19.1-38.8,19.1
			s0-14.6,0.1-19.5C90.4,77.5,91.6,73.5,97.9,72.2z"/>
		<path class="st0" d="M129.2,87.4c-1.7,20.5-18.2,36.9-38.8,38.1c0,0,0-8.3,0-11.7c0-5.4-0.1-8.2,6.3-9.9
			C118.7,98.2,129.2,87.4,129.2,87.4z"/>
	</g>
	<g>
		<path class="st0" d="M210.6,44.9l15.6,67.5l19.5-66.8h18.5l18.8,66.8l15.6-67.5h21.1l-27,92.4h-20.1l-18.7-67.2l-18.8,67.2h-19.9
			l-26.8-92.4H210.6z"/>
		<path class="st0" d="M351,10.4V57c3.7-4.9,7.9-8.6,12.7-11.1s10.4-3.8,16.8-3.8c6.6,0,12.4,1.2,17.2,3.6c4.9,2.4,8.9,5.7,12.1,10
			c3.2,4.3,5.6,9.4,7.2,15.4s2.4,12.6,2.4,19.8c0,7.6-1,14.4-2.8,20.5c-1.9,6.1-4.6,11.3-8.2,15.6c-3.5,4.3-7.8,7.6-12.8,9.9
			s-10.5,3.5-16.7,3.5c-5.6,0-10.7-1.1-15.5-3.2s-9.1-5.6-13-10.6v10.9h-19.5V10.4H351z M350.8,94.2c0.1,5.9,0.9,10.8,2.2,14.6
			c1.4,3.8,3.1,6.8,5.3,9.1c2.2,2.3,4.7,3.8,7.5,4.6s5.8,1.2,8.9,1.2c3.3,0,6.4-0.6,9.2-1.8s5.3-3.1,7.5-5.6s3.8-5.9,5-10.1
			c1.2-4.2,1.8-9.3,1.8-15.3c0-5.8-0.6-10.8-1.9-14.9c-1.2-4.1-2.9-7.4-4.9-10c-2-2.6-4.4-4.4-7.2-5.6c-2.8-1.2-5.7-1.8-8.6-1.8
			c-4.4,0-8.1,0.7-11.3,2.1c-3.1,1.4-5.7,3.4-7.7,6.1c-2,2.6-3.5,5.7-4.4,9.4c-1,3.6-1.4,7.6-1.4,12v4.4L350.8,94.2L350.8,94.2z"/>
		<path class="st0" d="M518.9,104.9c-1.2,11-5.1,19.6-11.8,25.9c-6.7,6.2-16.3,9.3-28.7,9.3c-7.5,0-14-1.1-19.5-3.5
			c-5.5-2.3-10.1-5.6-13.8-9.9s-6.4-9.4-8.2-15.4c-1.8-6-2.7-12.6-2.7-20c0-7.3,1-14.1,3-20.2c2-6.1,5-11.3,8.8-15.6
			c3.9-4.3,8.6-7.7,14.1-10c5.6-2.4,11.9-3.6,19-3.6c6.5,0,12,0.9,16.5,2.6c4.5,1.7,8.2,4,11.2,6.9c3,2.9,5.3,6.2,6.9,10
			s2.8,7.8,3.5,11.9l-20.1,3c-1-5.2-2.8-9.5-5.4-13c-2.7-3.4-7.1-5.1-13.4-5.1c-4.5,0-8.2,0.9-11.2,2.8c-3,1.9-5.3,4.4-7.1,7.4
			c-1.8,3-3,6.5-3.8,10.4c-0.8,3.9-1.2,7.9-1.2,11.9c0,4.6,0.4,8.9,1.2,13c0.8,4,2.1,7.5,3.9,10.4c1.8,2.9,4.2,5.2,7.1,6.9
			c3,1.7,6.6,2.6,10.8,2.6c6.2,0,10.8-1.6,14-4.9c3.2-3.3,5.2-7.9,6-13.9L518.9,104.9L518.9,104.9z"/>
		<path class="st0" d="M549.7,109c0.4,3.1,1.2,5.6,2.5,7.6c1.3,1.9,2.9,3.5,4.9,4.7c2,1.2,4.2,2,6.8,2.4c2.6,0.4,5.4,0.6,8.3,0.6
			c6.8,0,11.6-1,14.6-3c3-2,4.4-5,4.4-8.9c0-3.1-0.9-5.7-2.8-7.8s-5.6-3.7-11.2-4.6c-7.3-1.3-13.8-2.6-19.3-3.7s-10.2-2.8-14-4.9
			c-3.8-2.1-6.6-4.7-8.5-8s-2.8-7.7-2.8-13.2c0-4.3,1-8.1,2.8-11.6c1.9-3.5,4.5-6.5,7.9-8.9c3.4-2.4,7.4-4.3,12.1-5.6
			c4.7-1.3,9.8-1.9,15.4-1.9c7.1,0,13,0.7,17.8,2.1s8.6,3.4,11.5,5.9c3,2.5,5.2,5.3,6.8,8.5s2.7,6.6,3.5,10.1l-18.3,2.5
			c-1.4-4.6-3.6-8.1-6.5-10.3c-2.9-2.2-7.7-3.4-14.4-3.4c-3.9,0-7.1,0.4-9.5,1.1c-2.5,0.7-4.5,1.6-5.9,2.7c-1.5,1.1-2.5,2.2-3,3.6
			s-0.8,2.6-0.8,3.9c0,2,0.2,3.7,0.7,5c0.5,1.3,1.3,2.4,2.6,3.2c1.2,0.8,2.9,1.5,5.1,2.1c2.1,0.6,4.8,1.2,8,1.8l11.5,1.9
			c6.2,1.1,11.3,2.4,15.4,4.1c4.1,1.7,7.3,3.7,9.8,6.1c2.4,2.4,4.1,5.2,5.1,8.4s1.4,6.8,1.4,10.7c0,8.4-3.2,15.2-9.7,20.4
			c-6.5,5.1-16.2,7.7-29.2,7.7c-5.3,0-10.5-0.5-15.4-1.5c-4.9-1-9.3-2.7-13.2-5.1s-7.1-5.5-9.5-9.5s-3.8-9-4.2-15L549.7,109
			L549.7,109z"/>
		<path class="st0" d="M693.8,124.7c-3.8,5.2-8.1,9-12.9,11.6c-4.8,2.6-10.4,3.9-16.8,3.9c-6.6,0-12.4-1.2-17.2-3.6
			c-4.9-2.4-8.9-5.7-12.1-10c-3.2-4.3-5.6-9.5-7.2-15.5c-1.6-6-2.4-12.6-2.4-19.8c0-6.8,0.8-13.1,2.5-18.9s4.1-11,7.3-15.3
			c3.2-4.3,7.1-7.8,11.8-10.4c4.7-2.6,10.1-4,16.3-4.3c1.2-0.1,2.4-0.2,3.5-0.1c1.2,0.1,2.4,0.2,3.7,0.3c4.2,0.5,8.1,1.6,12,3.5
			c3.8,1.8,7.5,4.9,11.1,9.1V10.4h20.1v126.9h-19.7L693.8,124.7L693.8,124.7z M693.6,89.2c0-5.8-0.6-10.7-1.9-14.7
			c-1.2-4-3-7.1-5.2-9.4c-2.2-2.3-4.7-4-7.6-5c-2.9-1-6-1.5-9.2-1.5c-7.5,0-13.2,2.7-17.3,8c-4.1,5.4-6.1,13.5-6.1,24.4
			c0,5.9,0.6,11,1.7,15.1c1.1,4.2,2.7,7.5,4.8,10.2c2.1,2.6,4.5,4.5,7.2,5.7c2.7,1.2,5.7,1.8,8.9,1.8c7.3,0,13.3-2.4,17.9-7.2
			c4.6-4.8,6.8-12.3,6.8-22.5L693.6,89.2L693.6,89.2z"/>
	</g>
</g>
</svg>
